<svg fill="none" height="14" viewBox="0 0 14 14" width="14" xmlns="http://www.w3.org/2000/svg" xmlns:xlink="http://www.w3.org/1999/xlink"><clipPath id="a"><path d="m0 0h14v14h-14z"/></clipPath><g clip-path="url(#a)" stroke="#000001" stroke-linecap="round" stroke-linejoin="round"><path d="m3 13.5c1.38071 0 2.5-1.1193 2.5-2.5 0-1.38071-1.11929-2.5-2.5-2.5s-2.5 1.11929-2.5 2.5c0 1.3807 1.11929 2.5 2.5 2.5z"/><path d="m5.49999 3.00001v-1.5c0-.26521-.10536-.519568-.2929-.707104-.18753-.187536-.44189-.292893-.7071-.292893h-1.18c-.23536-.004281-.46469.074605-.64761.222771-.18292.148165-.30771.356106-.35239.587226l-1.770002 9.18999"/><path d="m4.5 5.5h5"/><path d="m5.5 8v3"/><path d="m11 13.5c1.3807 0 2.5-1.1193 2.5-2.5 0-1.38071-1.1193-2.5-2.5-2.5-1.38071 0-2.5 1.11929-2.5 2.5 0 1.3807 1.11929 2.5 2.5 2.5z"/><path d="m8.5 3.00001v-1.5c0-.26521.10536-.519568.29289-.707104.18754-.187536.44189-.292893.70711-.292893h1.18c.2354-.004281.4647.074605.6476.222771.1829.148165.3077.356106.3524.587226l1.79 9.18999"/><path d="m8.5 8v3"/></g></svg>