<svg fill="none" height="192" viewBox="0 0 192 192" width="192" xmlns="http://www.w3.org/2000/svg"><path d="m60.359 160.867 2.894-5.256a6.003 6.003 0 0 0 -4.284-.581zm-38.359 9.133-5.837-1.39a6.002 6.002 0 0 0 7.227 7.227zm9.133-38.359 5.837 1.39a6.001 6.001 0 0 0 -.581-4.284zm64.867 44.359c44.183 0 80-35.817 80-80h-12c0 37.555-30.445 68-68 68zm-38.535-9.877c11.435 6.297 24.575 9.877 38.535 9.877v-12c-11.884 0-23.04-3.043-32.747-8.389zm-34.075 9.714 38.358-9.133-2.78-11.674-38.358 9.133zm1.906-45.585-9.133 38.358 11.674 2.78 9.133-38.359zm-9.296-34.252c0 13.959 3.58 27.1 9.877 38.535l10.512-5.788c-5.346-9.708-8.389-20.863-8.389-32.747zm80-80c-44.183 0-80 35.817-80 80h12c0-37.555 30.445-68 68-68zm80 80c0-44.183-35.817-80-80-80v12c37.555 0 68 30.445 68 68z" fill="#000"/><path d="m103 130h-27v-34h27c9.389 0 17 7.611 17 17s-7.611 17-17 17zm-2-34h-25v-34h25c9.389 0 17 7.611 17 17s-7.611 17-17 17z" stroke="#000" stroke-linejoin="round" stroke-width="12"/></svg>